{
 "asset": {
  "version": "2.0",
  "generator": "render-workbook p02 asset generator"
 },
 "scene": 0,
 "scenes": [
  {
   "name": "Scene",
   "nodes": [
    0,
    1,
    2
   ]
  }
 ],
 "nodes": [
  {
   "name": "PyramidNode",
   "mesh": 0,
   "matrix": [
    0.85,
    0.0,
    0.0,
    0.0,
    0.0,
    0.85,
    0.0,
    0.0,
    0.0,
    0.0,
    0.85,
    0.0,
    -1.12,
    0.05,
    0.05,
    1.0
   ]
  },
  {
   "name": "PrismNode",
   "mesh": 1,
   "translation": [
    1.52,
    0.16,
    -0.35
   ],
   "rotation": [
    0.10986780039616995,
    0.39552408142621187,
    0.1538149205546379,
    0.898794046299167
   ],
   "scale": [
    0.85,
    0.85,
    0.85
   ]
  },
  {
   "name": "OctahedronNode",
   "mesh": 2,
   "translation": [
    0.88,
    0.5,
    -1.7
   ],
   "scale": [
    0.9,
    0.9,
    0.9
   ]
  }
 ],
 "meshes": [
  {
   "name": "Pyramid",
   "primitives": [
    {
     "attributes": {
      "POSITION": 0,
      "TEXCOORD_0": 1,
      "COLOR_0": 2
     },
     "indices": 3,
     "mode": 4
    }
   ]
  },
  {
   "name": "Prism",
   "primitives": [
    {
     "attributes": {
      "POSITION": 4,
      "TEXCOORD_0": 5,
      "COLOR_0": 6
     },
     "indices": 7,
     "mode": 4
    }
   ]
  },
  {
   "name": "Octahedron",
   "primitives": [
    {
     "attributes": {
      "POSITION": 8,
      "TEXCOORD_0": 9,
      "COLOR_0": 10
     },
     "indices": 11,
     "mode": 4
    }
   ]
  }
 ],
 "accessors": [
  {
   "bufferView": 0,
   "componentType": 5126,
   "count": 16,
   "type": "VEC3",
   "min": [
    -0.5,
    -0.2,
    -0.5
   ],
   "max": [
    0.5,
    0.6,
    0.5
   ]
  },
  {
   "bufferView": 0,
   "componentType": 5126,
   "count": 16,
   "type": "VEC2",
   "byteOffset": 12
  },
  {
   "bufferView": 0,
   "componentType": 5126,
   "count": 16,
   "type": "VEC3",
   "byteOffset": 20
  },
  {
   "bufferView": 1,
   "componentType": 5121,
   "count": 18,
   "type": "SCALAR"
  },
  {
   "bufferView": 2,
   "componentType": 5126,
   "count": 24,
   "type": "VEC3",
   "min": [
    -0.32,
    -0.45,
    -0.27712812921102037
   ],
   "max": [
    0.32,
    0.45,
    0.27712812921102037
   ]
  },
  {
   "bufferView": 3,
   "componentType": 5126,
   "count": 24,
   "type": "VEC2"
  },
  {
   "bufferView": 4,
   "componentType": 5126,
   "count": 24,
   "type": "VEC3"
  },
  {
   "bufferView": 5,
   "componentType": 5125,
   "count": 36,
   "type": "SCALAR"
  },
  {
   "bufferView": 6,
   "componentType": 5126,
   "count": 24,
   "type": "VEC3",
   "min": [
    -0.34,
    -0.42,
    -0.34
   ],
   "max": [
    0.34,
    0.42,
    0.34
   ]
  },
  {
   "bufferView": 7,
   "componentType": 5126,
   "count": 24,
   "type": "VEC2"
  },
  {
   "bufferView": 8,
   "componentType": 5126,
   "count": 24,
   "type": "VEC3"
  },
  {
   "bufferView": 9,
   "componentType": 5123,
   "count": 24,
   "type": "SCALAR"
  }
 ],
 "bufferViews": [
  {
   "buffer": 0,
   "byteOffset": 0,
   "byteLength": 512,
   "target": 34962,
   "byteStride": 32
  },
  {
   "buffer": 0,
   "byteOffset": 512,
   "byteLength": 18,
   "target": 34963
  },
  {
   "buffer": 0,
   "byteOffset": 532,
   "byteLength": 288,
   "target": 34962
  },
  {
   "buffer": 0,
   "byteOffset": 820,
   "byteLength": 192,
   "target": 34962
  },
  {
   "buffer": 0,
   "byteOffset": 1012,
   "byteLength": 288,
   "target": 34962
  },
  {
   "buffer": 0,
   "byteOffset": 1300,
   "byteLength": 144,
   "target": 34963
  },
  {
   "buffer": 0,
   "byteOffset": 1444,
   "byteLength": 288,
   "target": 34962
  },
  {
   "buffer": 0,
   "byteOffset": 1732,
   "byteLength": 192,
   "target": 34962
  },
  {
   "buffer": 0,
   "byteOffset": 1924,
   "byteLength": 288,
   "target": 34962
  },
  {
   "buffer": 0,
   "byteOffset": 2212,
   "byteLength": 48,
   "target": 34963
  }
 ],
 "buffers": [
  {
   "byteLength": 2260,
   "uri": "data:application/octet-stream;base64,"
  }
 ]
}